# Blender v3.0.0 OBJ File: 'Laboratory.blend'
# www.blender.org
mtllib Relica.mtl
o Relica_Cube.021
v -0.023566 0.245557 0.299760
v -0.017448 0.240804 0.305877
v -0.017448 0.254654 0.301551
v -0.021774 0.243180 0.304085
v -0.020980 0.247807 0.303856
v -0.017448 0.248221 0.304610
v -0.021774 0.251294 0.301551
v -0.017448 0.405670 0.181567
v -0.023566 0.397557 0.185151
v -0.017448 0.399933 0.192010
v -0.021774 0.403294 0.183359
v -0.020980 0.402990 0.186848
v -0.021774 0.399933 0.189476
v -0.017448 0.403990 0.187160
v 0.023570 0.397557 0.185151
v 0.017453 0.405670 0.181567
v 0.017453 0.399933 0.192010
v 0.021778 0.403294 0.183359
v 0.020985 0.402990 0.186848
v 0.017453 0.403990 0.187160
v 0.021778 0.399933 0.189476
v 0.023570 0.245557 0.299760
v 0.017453 0.254654 0.301551
v 0.017453 0.240804 0.305877
v 0.021778 0.251294 0.301551
v 0.020985 0.247807 0.303856
v 0.017453 0.248221 0.304610
v 0.021778 0.243180 0.304085
v -0.023566 0.397557 -0.255639
v -0.017448 0.405670 -0.252056
v -0.017448 0.399933 -0.262499
v -0.021774 0.403294 -0.253848
v -0.020980 0.402990 -0.257336
v -0.017448 0.403990 -0.257649
v -0.021774 0.399933 -0.259965
v -0.023566 0.339042 -0.299760
v -0.017448 0.348140 -0.301551
v -0.017448 0.334290 -0.305877
v -0.021774 0.345272 -0.300655
v -0.020980 0.341191 -0.303670
v -0.017448 0.341911 -0.304981
v -0.021774 0.335478 -0.303714
v 0.023570 0.339042 -0.299760
v 0.017453 0.334290 -0.305877
v 0.017453 0.348140 -0.301551
v 0.021778 0.336666 -0.304085
v 0.020985 0.341293 -0.303856
v 0.017453 0.341707 -0.304610
v 0.021778 0.344779 -0.301551
v 0.017453 0.405670 -0.252056
v 0.023570 0.397557 -0.255639
v 0.017453 0.399933 -0.262499
v 0.021778 0.403294 -0.253848
v 0.020985 0.402990 -0.257336
v 0.021778 0.399933 -0.259965
v 0.017453 0.403990 -0.257649
v -0.023566 -0.330244 -0.299760
v -0.017448 -0.325492 -0.305877
v -0.017448 -0.339342 -0.301551
v -0.021774 -0.327868 -0.304085
v -0.020980 -0.332495 -0.303856
v -0.017448 -0.332909 -0.304610
v -0.021774 -0.335981 -0.301551
v -0.017448 -0.405670 -0.245422
v -0.023566 -0.397557 -0.249006
v -0.017448 -0.399933 -0.255865
v -0.021774 -0.403294 -0.247214
v -0.020980 -0.402990 -0.250703
v -0.021774 -0.399933 -0.253331
v -0.017448 -0.403990 -0.251015
v 0.023570 -0.397557 -0.249006
v 0.017453 -0.405670 -0.245422
v 0.017453 -0.399933 -0.255865
v 0.021778 -0.403294 -0.247214
v 0.020985 -0.402990 -0.250703
v 0.017453 -0.403990 -0.251015
v 0.021778 -0.399933 -0.253331
v 0.023570 -0.330244 -0.299760
v 0.017453 -0.339342 -0.301551
v 0.017453 -0.325492 -0.305877
v 0.021778 -0.335981 -0.301551
v 0.020985 -0.332495 -0.303856
v 0.017453 -0.332909 -0.304610
v 0.021778 -0.327868 -0.304085
v -0.023566 -0.397557 0.276594
v -0.017448 -0.405670 0.273010
v -0.017448 -0.399933 0.283453
v -0.021774 -0.403294 0.274802
v -0.020980 -0.402990 0.278291
v -0.017448 -0.403990 0.278603
v -0.021774 -0.399933 0.280919
v -0.023566 -0.366833 0.299760
v -0.017448 -0.375931 0.301551
v -0.017448 -0.362080 0.305877
v -0.021774 -0.373062 0.300655
v -0.020980 -0.368981 0.303670
v -0.017448 -0.369702 0.304981
v -0.021774 -0.363269 0.303714
v 0.023570 -0.366833 0.299760
v 0.017453 -0.362080 0.305877
v 0.017453 -0.375931 0.301551
v 0.021778 -0.363269 0.303714
v 0.020985 -0.368981 0.303670
v 0.017453 -0.369702 0.304981
v 0.021778 -0.373062 0.300655
v 0.017453 -0.405670 0.273010
v 0.023570 -0.397557 0.276594
v 0.017453 -0.399933 0.283453
v 0.021778 -0.403294 0.274802
v 0.020985 -0.402990 0.278291
v 0.021778 -0.399933 0.280919
v 0.017453 -0.403990 0.278603
vt 0.921259 0.040210
vt 0.959790 0.078741
vt 0.959790 0.461860
vt 0.926295 0.495356
vt 0.591654 0.495356
vt 0.504644 0.408346
vt 0.504644 0.057797
vt 0.522232 0.040210
vt 0.066706 0.537968
vt 0.040210 0.537968
vt 0.040210 0.503284
vt 0.066706 0.503284
vt 0.174061 0.504644
vt 0.174061 0.849753
vt 0.147565 0.849753
vt 0.147565 0.504644
vt 0.075995 0.877989
vt 0.102491 0.877989
vt 0.102491 0.961150
vt 0.075995 0.961150
vt 0.138276 0.504644
vt 0.138276 0.882322
vt 0.111780 0.882322
vt 0.111780 0.504644
vt 0.075995 0.540860
vt 0.102491 0.540860
vt 0.102491 0.870060
vt 0.075995 0.870060
vt 0.040210 0.545897
vt 0.066706 0.545897
vt 0.066706 0.939482
vt 0.040210 0.939482
vt 0.102491 0.532932
vt 0.075995 0.532932
vt 0.075995 0.503284
vt 0.102491 0.503284
vt 0.040210 0.947411
vt 0.066706 0.947411
vt 0.066706 0.961150
vt 0.040210 0.961150
vt 0.495356 0.408347
vt 0.500000 0.406986
vt 0.500000 0.409635
vt 0.497678 0.412592
vt 0.147565 0.854397
vt 0.144883 0.854397
vt 0.142920 0.851113
vt 0.107135 0.962112
vt 0.107135 0.963985
vt 0.102491 0.964435
vt 0.107135 0.871421
vt 0.107135 0.874069
vt 0.102491 0.874705
vt 0.408346 0.495356
vt 0.412592 0.497678
vt 0.410719 0.499551
vt 0.406986 0.500000
vt 0.105173 0.874705
vt 0.107135 0.877027
vt 0.593014 0.500000
vt 0.590365 0.500000
vt 0.587408 0.497678
vt 0.075995 0.874705
vt 0.073313 0.874705
vt 0.071350 0.871421
vt 0.071350 0.877027
vt 0.071350 0.875154
vt 0.502322 0.412592
vt 0.500449 0.410720
vt 0.500000 0.406986
vt 0.075995 0.964435
vt 0.073313 0.964435
vt 0.071350 0.962112
vt 0.178705 0.851113
vt 0.178705 0.853762
vt 0.174061 0.854397
vt 0.073705 0.495356
vt 0.075065 0.500000
vt 0.072417 0.500000
vt 0.069459 0.497678
vt 0.102491 0.536216
vt 0.105173 0.536216
vt 0.107136 0.539500
vt 0.107136 0.533894
vt 0.107136 0.535767
vt 0.040210 0.461860
vt 0.038369 0.466587
vt 0.036056 0.464275
vt 0.035565 0.459820
vt 0.102491 0.500000
vt 0.105173 0.500000
vt 0.107136 0.502803
vt 0.142920 0.883002
vt 0.142920 0.886272
vt 0.138276 0.886966
vt 0.964435 0.460500
vt 0.964435 0.463149
vt 0.962112 0.466106
vt 0.111780 0.886966
vt 0.109098 0.886966
vt 0.107136 0.883682
vt 0.071351 0.502322
vt 0.071351 0.500449
vt 0.075995 0.500000
vt 0.071351 0.539500
vt 0.071351 0.536851
vt 0.075995 0.536216
vt 0.930541 0.497678
vt 0.928668 0.499551
vt 0.924935 0.500000
vt 0.073313 0.536216
vt 0.071351 0.533894
vt 0.040210 0.078741
vt 0.035566 0.080102
vt 0.035566 0.077453
vt 0.037888 0.074495
vt 0.138276 0.500000
vt 0.140958 0.500000
vt 0.142920 0.503284
vt 0.035566 0.502322
vt 0.035566 0.500449
vt 0.040210 0.500000
vt 0.035566 0.544536
vt 0.035566 0.541888
vt 0.040210 0.541252
vt 0.078741 0.040210
vt 0.074496 0.037888
vt 0.076368 0.036015
vt 0.080102 0.035565
vt 0.037528 0.541252
vt 0.035566 0.538930
vt 0.919898 0.035565
vt 0.922547 0.035565
vt 0.925505 0.037888
vt 0.066706 0.541252
vt 0.069388 0.541252
vt 0.071350 0.544536
vt 0.071350 0.538930
vt 0.071350 0.540803
vt 0.962112 0.074496
vt 0.963985 0.076368
vt 0.964435 0.080102
vt 0.066706 0.500000
vt 0.069388 0.500000
vt 0.071350 0.502322
vt 0.107136 0.503284
vt 0.107136 0.500636
vt 0.111780 0.500000
vt 0.477768 0.040210
vt 0.476408 0.035565
vt 0.479057 0.035565
vt 0.482014 0.037888
vt 0.040210 0.944127
vt 0.037528 0.944127
vt 0.035565 0.940843
vt 0.035565 0.946449
vt 0.035565 0.944576
vt 0.495356 0.057797
vt 0.497197 0.053070
vt 0.499509 0.055383
vt 0.500000 0.059837
vt 0.040210 0.964435
vt 0.037528 0.964435
vt 0.035565 0.961631
vt 0.142921 0.503964
vt 0.142921 0.500694
vt 0.147565 0.500000
vt 0.500000 0.059837
vt 0.500000 0.056567
vt 0.502803 0.053070
vt 0.174061 0.500000
vt 0.176743 0.500000
vt 0.178705 0.503964
vt 0.071350 0.961631
vt 0.071350 0.963944
vt 0.066706 0.964435
vt 0.071350 0.940843
vt 0.071350 0.943491
vt 0.066706 0.944127
vt 0.517986 0.037888
vt 0.519858 0.036015
vt 0.523592 0.035565
vt 0.069388 0.944127
vt 0.071350 0.946449
vn 0.9760 -0.1892 -0.1075
vn 0.9676 -0.0733 -0.2416
vn 0.9676 0.0733 -0.2416
vn 0.9760 0.1892 -0.1075
vn 0.9760 0.1892 0.1075
vn 0.9669 0.0733 0.2443
vn 0.9625 -0.0798 0.2591
vn 0.9753 -0.1910 0.1105
vn 0.1940 -0.6627 -0.7233
vn -0.1940 -0.6627 -0.7233
vn -0.1930 -0.5260 -0.8283
vn 0.1930 -0.5260 -0.8283
vn 0.2075 -0.0487 0.9770
vn 0.1863 0.0667 0.9802
vn -0.1863 0.0667 0.9802
vn -0.2075 -0.0487 0.9770
vn 0.1940 0.6627 0.7233
vn -0.1940 0.6627 0.7233
vn -0.1930 0.5260 0.8283
vn 0.1930 0.5260 0.8283
vn -0.1863 -0.0667 -0.9802
vn -0.2062 0.0554 -0.9769
vn 0.1761 0.0598 -0.9825
vn 0.1747 -0.0666 -0.9823
vn 0.2196 0.9684 -0.1183
vn -0.2196 0.9684 -0.1183
vn -0.2196 0.9684 0.1183
vn 0.2196 0.9684 0.1183
vn -0.2196 -0.9684 -0.1183
vn 0.2196 -0.9684 -0.1183
vn 0.2196 -0.9684 0.1183
vn -0.2196 -0.9684 0.1183
vn -0.2055 0.6608 -0.7218
vn 0.1940 0.6627 -0.7233
vn 0.1944 0.5323 -0.8239
vn -0.2262 0.5322 -0.8158
vn -0.2055 -0.6601 0.7224
vn 0.2055 -0.6601 0.7224
vn 0.2275 -0.5377 0.8119
vn -0.2275 -0.5377 0.8119
vn -0.9669 0.0733 0.2443
vn -0.6767 0.0748 0.7324
vn -0.5671 0.2467 0.7858
vn -0.6977 0.3597 0.6196
vn -0.1432 0.3015 0.9427
vn -0.7401 0.6619 0.1184
vn -0.6020 0.7017 0.3811
vn -0.1705 0.8699 0.4628
vn -0.9760 0.1892 0.1075
vn -0.7131 0.4974 0.4941
vn 0.7401 0.6619 0.1184
vn 0.6020 0.7017 0.3811
vn 0.7131 0.4974 0.4941
vn 0.1705 0.8699 0.4628
vn 0.6977 0.3597 0.6196
vn 0.5671 0.2467 0.7858
vn 0.6767 0.0748 0.7324
vn 0.1432 0.3015 0.9427
vn -0.9753 0.1911 -0.1103
vn -0.7401 0.6619 -0.1184
vn -0.6020 0.7017 -0.3811
vn -0.7157 0.4948 -0.4929
vn -0.1705 0.8699 -0.4628
vn -0.9626 0.0799 -0.2590
vn -0.7318 0.3610 -0.5780
vn -0.6266 0.2326 -0.7438
vn -0.7063 0.0502 -0.7061
vn -0.2073 0.3024 -0.9303
vn 0.6756 0.0752 -0.7334
vn 0.5671 0.2467 -0.7858
vn 0.6977 0.3596 -0.6196
vn 0.1464 0.3020 -0.9420
vn 0.7401 0.6619 -0.1184
vn 0.6020 0.7017 -0.3811
vn 0.1705 0.8699 -0.4628
vn 0.7131 0.4974 -0.4941
vn -0.9669 -0.0733 -0.2443
vn -0.6767 -0.0748 -0.7324
vn -0.5671 -0.2467 -0.7858
vn -0.6977 -0.3596 -0.6196
vn -0.1432 -0.3015 -0.9427
vn -0.7401 -0.6619 -0.1184
vn -0.6020 -0.7017 -0.3811
vn -0.1705 -0.8699 -0.4628
vn -0.9760 -0.1892 -0.1075
vn -0.7131 -0.4974 -0.4941
vn 0.7401 -0.6619 -0.1184
vn 0.6020 -0.7017 -0.3811
vn 0.7131 -0.4974 -0.4941
vn 0.1705 -0.8699 -0.4628
vn 0.6977 -0.3596 -0.6196
vn 0.5671 -0.2467 -0.7858
vn 0.6756 -0.0752 -0.7334
vn 0.1432 -0.3015 -0.9427
vn -0.9753 -0.1910 0.1105
vn -0.7401 -0.6619 0.1184
vn -0.6020 -0.7017 0.3811
vn -0.7152 -0.4944 0.4940
vn -0.1705 -0.8699 0.4628
vn -0.9625 -0.0798 0.2591
vn -0.7321 -0.3599 0.5783
vn -0.6266 -0.2326 0.7438
vn -0.7063 -0.0502 0.7061
vn -0.2107 -0.3031 0.9293
vn 0.7063 -0.0502 0.7061
vn 0.6266 -0.2326 0.7438
vn 0.7321 -0.3599 0.5783
vn 0.2107 -0.3031 0.9293
vn 0.7401 -0.6619 0.1184
vn 0.6020 -0.7017 0.3811
vn 0.1705 -0.8699 0.4628
vn 0.7152 -0.4944 0.4940
usemtl None
s 1
f 71/1/1 78/2/2 43/3/3 51/4/4 15/5/5 22/6/6 99/7/7 107/8/8
f 73/9/9 66/10/10 59/11/11 79/12/12
f 100/13/13 24/14/14 2/15/15 94/16/16
f 17/17/17 10/18/18 3/19/19 23/20/20
f 58/21/21 38/22/22 44/23/23 80/24/24
f 50/25/25 30/26/26 8/27/27 16/28/28
f 64/29/29 72/30/30 106/31/31 86/32/32
f 31/33/33 52/34/34 45/35/35 37/36/36
f 87/37/37 108/38/38 101/39/39 93/40/40
f 1/41/41 4/42/42 5/43/43 7/44/44
f 2/15/15 6/45/45 5/46/43 4/47/42
f 3/19/19 7/48/44 5/49/43 6/50/45
f 8/27/27 11/51/46 12/52/47 14/53/48
f 9/54/49 13/55/50 12/56/47 11/57/46
f 10/18/18 14/53/48 12/58/47 13/59/50
f 15/5/5 18/60/51 19/61/52 21/62/53
f 16/28/28 20/63/54 19/64/52 18/65/51
f 17/17/17 21/66/53 19/67/52 20/63/54
f 22/6/6 25/68/55 26/69/56 28/70/57
f 23/20/20 27/71/58 26/72/56 25/73/55
f 24/14/14 28/74/57 26/75/56 27/76/58
f 29/77/59 32/78/60 33/79/61 35/80/62
f 30/26/26 34/81/63 33/82/61 32/83/60
f 31/33/33 35/84/62 33/85/61 34/81/63
f 36/86/64 39/87/65 40/88/66 42/89/67
f 37/36/36 41/90/68 40/91/66 39/92/65
f 38/22/22 42/93/67 40/94/66 41/95/68
f 43/3/3 46/96/69 47/97/70 49/98/71
f 44/23/23 48/99/72 47/100/70 46/101/69
f 45/35/35 49/102/71 47/103/70 48/104/72
f 50/25/25 53/105/73 54/106/74 56/107/75
f 51/4/4 55/108/76 54/109/74 53/110/73
f 52/34/34 56/107/75 54/111/74 55/112/76
f 57/113/77 60/114/78 61/115/79 63/116/80
f 58/21/21 62/117/81 61/118/79 60/119/78
f 59/11/11 63/120/80 61/121/79 62/122/81
f 64/29/29 67/123/82 68/124/83 70/125/84
f 65/126/85 69/127/86 68/128/83 67/129/82
f 66/10/10 70/125/84 68/130/83 69/131/86
f 71/1/1 74/132/87 75/133/88 77/134/89
f 72/30/30 76/135/90 75/136/88 74/137/87
f 73/9/9 77/138/89 75/139/88 76/135/90
f 78/2/2 81/140/91 82/141/92 84/142/93
f 79/12/12 83/143/94 82/144/92 81/145/91
f 80/24/24 84/146/93 82/147/92 83/148/94
f 85/149/95 88/150/96 89/151/97 91/152/98
f 86/32/32 90/153/99 89/154/97 88/155/96
f 87/37/37 91/156/98 89/157/97 90/153/99
f 92/158/100 95/159/101 96/160/102 98/161/103
f 93/40/40 97/162/104 96/163/102 95/164/101
f 94/16/16 98/165/103 96/166/102 97/167/104
f 99/7/7 102/168/105 103/169/106 105/170/107
f 100/13/13 104/171/108 103/172/106 102/173/105
f 101/39/39 105/174/107 103/175/106 104/176/108
f 106/31/31 109/177/109 110/178/110 112/179/111
f 107/8/8 111/180/112 110/181/110 109/182/109
f 108/38/38 112/179/111 110/183/110 111/184/112
f 22/6/6 15/5/5 21/62/53 25/68/55
f 25/73/55 21/66/53 17/17/17 23/20/20
f 16/28/28 8/27/27 14/53/48 20/63/54
f 20/63/54 14/53/48 10/18/18 17/17/17
f 9/54/49 1/41/41 7/44/44 13/55/50
f 13/59/50 7/48/44 3/19/19 10/18/18
f 2/15/15 24/14/14 27/76/58 6/45/45
f 6/50/45 27/71/58 23/20/20 3/19/19
f 36/86/64 29/77/59 35/80/62 39/87/65
f 39/92/65 35/84/62 31/33/33 37/36/36
f 30/26/26 50/25/25 56/107/75 34/81/63
f 34/81/63 56/107/75 52/34/34 31/33/33
f 51/4/4 43/3/3 49/98/71 55/108/76
f 55/112/76 49/102/71 45/35/35 52/34/34
f 44/23/23 38/22/22 41/95/68 48/99/72
f 48/104/72 41/90/68 37/36/36 45/35/35
f 8/27/27 30/26/26 32/83/60 11/51/46
f 11/57/46 32/78/60 29/77/59 9/54/49
f 15/5/5 51/4/4 53/110/73 18/60/51
f 18/65/51 53/105/73 50/25/25 16/28/28
f 78/2/2 71/1/1 77/134/89 81/140/91
f 81/145/91 77/138/89 73/9/9 79/12/12
f 72/30/30 64/29/29 70/125/84 76/135/90
f 76/135/90 70/125/84 66/10/10 73/9/9
f 65/126/85 57/113/77 63/116/80 69/127/86
f 69/131/86 63/120/80 59/11/11 66/10/10
f 58/21/21 80/24/24 83/148/94 62/117/81
f 62/122/81 83/143/94 79/12/12 59/11/11
f 38/22/22 58/21/21 60/119/78 42/93/67
f 42/89/67 60/114/78 57/113/77 36/86/64
f 43/3/3 78/2/2 84/142/93 46/96/69
f 46/101/69 84/146/93 80/24/24 44/23/23
f 92/158/100 85/149/95 91/152/98 95/159/101
f 95/164/101 91/156/98 87/37/37 93/40/40
f 86/32/32 106/31/31 112/179/111 90/153/99
f 90/153/99 112/179/111 108/38/38 87/37/37
f 107/8/8 99/7/7 105/170/107 111/180/112
f 111/184/112 105/174/107 101/39/39 108/38/38
f 100/13/13 94/16/16 97/167/104 104/171/108
f 104/176/108 97/162/104 93/40/40 101/39/39
f 85/149/95 65/126/85 67/129/82 88/150/96
f 88/155/96 67/123/82 64/29/29 86/32/32
f 71/1/1 107/8/8 109/182/109 74/132/87
f 74/137/87 109/177/109 106/31/31 72/30/30
f 99/7/7 22/6/6 28/70/57 102/168/105
f 102/173/105 28/74/57 24/14/14 100/13/13
f 1/41/41 92/158/100 98/161/103 4/42/42
f 4/47/42 98/165/103 94/16/16 2/15/15
f 85/149/95 92/158/100 1/41/41 9/54/49 29/77/59 36/86/64 57/113/77 65/126/85
