# Blender v3.0.0 OBJ File: 'Laboratory.blend'
# www.blender.org
mtllib Room_02_Platform_01.mtl
o Room_02_Platform_01_Cube.017
v -7.715445 -9.750471 1.000000
v -10.652556 -9.750471 1.000000
v -10.677556 -9.750471 0.975000
v -10.670234 -9.750471 0.992678
v -10.652556 0.975000 1.000000
v -10.652556 1.000000 0.975000
v -10.677556 0.975000 0.975000
v -10.652557 0.992678 0.992678
v -10.666991 0.989434 0.989434
v -10.670235 0.992678 0.975000
v -10.670235 0.975000 0.992678
v -10.677556 -9.725471 -1.766846
v -10.652556 -9.750471 -1.766846
v -10.677556 -9.750471 -1.741846
v -10.670234 -9.743149 -1.766846
v -10.652556 1.000000 -1.766846
v -10.677556 0.975000 -1.766846
v -10.670234 0.992678 -1.766846
v 1.000000 -9.750471 0.975000
v 0.975000 -9.750471 1.000000
v 0.992678 -9.750471 0.992678
v 0.975000 1.000000 0.975000
v 0.975000 0.975000 1.000000
v 1.000000 0.975000 0.975000
v 0.975000 0.992678 0.992678
v 0.989434 0.989434 0.989434
v 0.992678 0.975000 0.992678
v 0.992678 0.992678 0.975000
v 0.975000 -9.750471 -1.766846
v 1.000000 -9.750471 -1.741846
v 0.992678 -9.750471 -1.759523
v 0.975000 1.000000 -1.741846
v 1.000000 0.975000 -1.741846
v 0.975000 0.975000 -1.766846
v 0.992678 0.992678 -1.741846
v 0.989434 0.989434 -1.756279
v 0.992678 0.975000 -1.759523
v 0.975000 0.992678 -1.759523
v -7.715445 -9.725471 -1.791846
v -7.715445 -9.750471 -1.766846
v -7.715445 -9.737971 -1.779346
v -7.690444 0.975000 -1.766846
v -7.715445 0.975000 -1.791846
v -7.740445 1.000000 -1.741846
v -7.708123 0.975000 -1.774168
v -7.715445 0.989434 -1.766846
v -7.722766 0.992678 -1.766846
v -7.715445 0.992678 -1.759523
v -7.715445 0.975000 1.000000
v -7.715445 1.000000 0.975000
v -7.715445 0.992678 0.992678
v -10.677556 0.975000 -11.245815
v -10.652556 1.000000 -11.245815
v -10.652556 0.975000 -11.270815
v -10.670235 0.992678 -11.245814
v -10.666991 0.989434 -11.260248
v -10.652557 0.992678 -11.263492
v -10.670235 0.975000 -11.263492
v -10.677556 -9.725471 -11.245815
v -10.652556 -9.725471 -11.270815
v -10.652556 -9.750471 -11.245815
v -10.670235 -9.725471 -11.263492
v -10.666991 -9.739905 -11.260248
v -10.652557 -9.743149 -11.263492
v -10.670235 -9.743149 -11.245814
v -7.740445 -9.750471 -11.245815
v -7.740445 -9.725471 -11.270815
v -7.715445 -9.725471 -11.245815
v -7.740445 -9.743149 -11.263492
v -7.726011 -9.739905 -11.260248
v -7.722767 -9.725471 -11.263492
v -7.722767 -9.743149 -11.245814
v -7.740445 1.000000 -11.245815
v -7.715445 0.975000 -11.245815
v -7.740445 0.975000 -11.270815
v -7.722766 0.992678 -11.245814
v -7.726010 0.989434 -11.260248
v -7.722766 0.975000 -11.263492
v -7.740444 0.992678 -11.263492
vt 0.345462 0.489504
vt 0.000803 0.489504
vt 0.000803 0.395121
vt 0.345462 0.395121
vt 0.346266 0.738976
vt 0.346266 0.395121
vt 0.650065 0.395121
vt 0.650065 0.738976
vt 0.345462 0.768768
vt 0.000803 0.768768
vt 0.930936 0.394318
vt 0.930133 0.738976
vt 0.651672 0.738976
vt 0.651672 0.394318
vt 0.719913 0.305407
vt 0.376057 0.305407
vt 0.376057 0.000803
vt 0.719913 0.000803
vt 0.815099 0.000803
vt 0.815099 0.344658
vt 0.721519 0.344658
vt 0.721519 0.000803
vt 1.000000 0.305407
vt 0.905617 0.305407
vt 0.905617 0.000803
vt 0.999197 0.000803
vt 0.904010 0.000000
vt 0.904010 0.344658
vt 0.816705 0.344658
vt 0.816706 0.000000
vt 0.000000 0.395121
vt 0.000000 0.394657
vt 0.000803 0.394318
vt 0.376057 0.393514
vt 0.376057 0.394318
vt 0.375593 0.394318
vt 0.375254 0.393514
vt 0.720481 0.305407
vt 0.720716 0.306210
vt 0.720716 0.305407
vt 0.000803 0.769571
vt 0.000340 0.769571
vt 0.000000 0.768768
vt 0.816706 0.345462
vt 0.816242 0.345462
vt 0.815902 0.344658
vt 0.904814 0.344658
vt 0.904814 0.345122
vt 0.904010 0.345462
vt 0.651672 0.739779
vt 0.651208 0.739779
vt 0.650869 0.738976
vt 0.930936 0.738976
vt 0.930936 0.739440
vt 0.930936 0.739779
vt 0.345462 0.739779
vt 0.345462 0.739779
vt 0.345462 0.738976
vt 0.375254 0.000803
vt 0.375254 0.000340
vt 0.376057 0.000000
vt 0.815902 0.344658
vt 0.815902 0.345122
vt 0.815099 0.345462
vt 0.719913 0.000000
vt 0.720376 0.000000
vt 0.720716 0.000803
vt 0.815099 0.000000
vt 0.815563 0.000000
vt 0.815902 0.000803
vt 0.904814 0.000803
vt 0.904814 0.000340
vt 0.905617 0.000000
vt 0.999197 0.000000
vt 0.999660 0.000000
vt 1.000000 0.000803
vt 0.720716 0.000803
vt 0.720716 0.000340
vt 0.721519 0.000000
vt 0.650065 0.394318
vt 0.650529 0.394318
vt 0.650869 0.395121
vt 0.650868 0.738976
vt 0.650868 0.739440
vt 0.650065 0.739779
vt 0.721519 0.345462
vt 0.721056 0.345462
vt 0.720716 0.344658
vt 0.345462 0.394318
vt 0.720716 0.394318
vt 0.720716 0.393514
vt 0.375254 0.305407
vt 0.904814 0.000000
vt 0.650869 0.394318
vt 0.345462 0.769571
vt 0.815902 0.000000
vt 0.000000 0.489504
vt 0.930936 0.394719
vt 0.345462 0.394719
vt 1.000000 0.305005
vt 0.345864 0.394318
vt 0.904814 0.305407
vt 0.720716 0.305407
vt 0.280871 0.306210
vt 0.374450 0.305407
vt 0.374450 0.393514
vt 0.280067 0.393514
vt 0.000803 0.306210
vt 0.000803 0.393514
vt 0.280871 0.000803
vt 0.374450 0.000803
vt 0.375254 0.393978
vt 0.374450 0.394318
vt 0.000803 0.394318
vt 0.000340 0.394318
vt 0.000000 0.393514
vt 0.000000 0.306210
vt 0.000000 0.305746
vt 0.000803 0.305407
vt 0.280067 0.305407
vt 0.280067 0.305407
vt 0.280067 0.305407
vt 0.374450 0.000000
vt 0.374914 0.000000
vt 0.280067 0.000803
vt 0.280067 0.000340
vt 0.280871 0.000000
vt 0.280067 0.394318
vn 0.0000 0.0000 1.0000
vn 0.0000 0.1951 0.9808
vn -0.1794 0.1794 0.9673
vn -0.1951 0.0000 0.9808
vn 0.9615 0.2496 -0.1151
vn 0.9919 -0.0897 -0.0898
vn 0.9740 -0.1396 -0.1784
vn 0.9673 0.1793 -0.1794
vn 0.1951 0.0000 0.9808
vn 0.1794 0.1794 0.9673
vn 0.3682 -0.6573 -0.6575
vn 0.2574 0.2625 -0.9300
vn 0.1794 0.1794 -0.9673
vn 0.1951 0.0000 -0.9808
vn -0.9879 -0.1466 -0.0495
vn -0.9808 0.1950 0.0000
vn -0.9673 0.1793 -0.1794
vn -0.9673 -0.1793 -0.1794
vn -0.1794 -0.1794 -0.9673
vn -0.1794 0.1794 -0.9673
vn 0.1794 -0.1794 -0.9673
vn -0.2338 -0.9691 -0.0790
vn -0.1793 -0.9673 -0.1794
vn 0.2875 -0.9392 -0.1877
vn 0.9808 0.0000 -0.1951
vn 0.9673 0.1794 -0.1794
vn 0.9673 0.1794 0.1794
vn 0.9808 0.0000 0.1951
vn -0.1726 0.6965 0.6965
vn -0.5773 0.5773 0.5773
vn -0.6965 0.1725 0.6965
vn -0.9673 0.1793 0.1793
vn -0.6965 0.6965 0.1725
vn -0.6921 -0.6921 -0.2048
vn -0.9673 -0.2189 -0.1282
vn 0.6965 0.1726 0.6965
vn 0.5773 0.5773 0.5773
vn 0.1726 0.6965 0.6965
vn 0.6965 0.6965 0.1726
vn 0.6965 0.1726 -0.6965
vn 0.5773 0.5773 -0.5773
vn 0.6965 0.6965 -0.1726
vn 0.1726 0.6965 -0.6965
vn 0.7447 0.4008 -0.5336
vn 0.4524 0.7685 -0.4524
vn 0.1445 0.8862 -0.4402
vn 0.4402 0.8862 -0.1445
vn -0.6965 0.6965 -0.1726
vn -0.5773 0.5773 -0.5773
vn -0.6965 0.1725 -0.6965
vn -0.1726 0.6965 -0.6965
vn -0.6965 -0.1725 -0.6965
vn -0.5773 -0.5773 -0.5773
vn -0.6965 -0.6965 -0.1725
vn -0.1726 -0.6965 -0.6965
vn 0.1725 -0.6965 -0.6965
vn 0.5773 -0.5773 -0.5773
vn 0.8023 -0.5720 -0.1704
vn 0.6965 -0.1726 -0.6965
vn -0.7071 0.0000 0.7071
vn -0.9808 0.0000 0.1951
vn -0.7071 0.7071 0.0000
vn 0.7071 0.0000 -0.7071
vn 0.7071 0.0000 0.7071
vn 0.0000 0.7071 0.7071
vn 0.8970 -0.3125 -0.3125
vn 0.0507 0.9974 -0.0507
vn -0.1951 0.9808 0.0000
vn -0.1794 0.9673 0.1794
vn 0.0000 0.9808 0.1951
vn 0.1794 0.9673 -0.1794
vn 0.1794 0.9673 0.1794
vn -0.1794 0.9673 -0.1794
usemtl Concrete_02
s 1
f 1/1/1 49/2/2 5/3/3 2/4/4
f 43/5/5 39/6/6 68/7/7 74/8/8
f 20/9/9 23/10/10 49/2/2 1/1/1
f 40/11/11 42/12/12 34/13/13 29/14/14
f 12/15/15 17/16/16 52/17/17 59/18/18
f 60/19/19 54/20/20 75/21/13 67/22/21
f 40/23/11 13/24/22 61/25/23 66/26/24
f 30/27/25 33/28/26 24/29/27 19/30/28
f 5/3/3 8/31/29 9/32/30 11/33/31
f 7/34/32 11/35/31 9/36/30 10/37/33
f 12/15/15 15/38/34 14/39/35
f 15/38/34 13/40/22 14/39/35
f 23/10/10 27/41/36 26/42/37 25/43/38
f 24/29/27 28/44/39 26/45/37 27/46/36
f 33/28/26 37/47/40 36/48/41 35/49/42
f 34/13/13 38/50/43 36/51/41 37/52/40
f 42/12/12 45/53/44 46/54/45 48/55/46
f 43/5/5 47/56/47 46/57/45 45/58/44
f 52/17/17 55/59/48 56/60/49 58/61/50
f 54/20/20 58/62/50 56/63/49 57/64/51
f 59/18/18 62/65/52 63/66/53 65/67/54
f 60/19/19 64/68/55 63/69/53 62/70/52
f 61/25/23 65/71/54 63/72/53 64/73/55
f 66/26/24 69/74/56 70/75/57 72/76/58
f 67/22/21 71/77/59 70/78/57 69/79/56
f 68/7/7 72/80/58 70/81/57 71/82/59
f 74/8/8 78/83/40 77/84/41 76/85/42
f 75/21/13 79/86/43 77/87/41 78/88/40
f 2/4/4 5/3/3 11/33/31 4/89/60
f 4/90/60 11/35/31 7/34/32 3/91/61
f 10/37/33 18/92/62 17/16/16 7/34/32
f 48/55/46 38/50/43 34/13/13 42/12/12
f 33/28/26 30/27/25 31/93/63 37/47/40
f 37/52/40 31/94/63 29/14/14 34/13/13
f 35/49/42 28/44/39 24/29/27 33/28/26
f 23/10/10 20/9/9 21/95/64 27/41/36
f 27/46/36 21/96/64 19/30/28 24/29/27
f 51/97/65 8/31/29 5/3/3 49/2/2
f 25/43/38 51/97/65 49/2/2 23/10/10
f 42/12/12 40/11/11 41/98/66 45/53/44
f 45/58/44 41/99/66 39/6/6 43/5/5
f 54/20/20 60/19/19 62/70/52 58/62/50
f 58/61/50 62/65/52 59/18/18 52/17/17
f 66/26/24 61/25/23 64/73/55 69/74/56
f 69/79/56 64/68/55 60/19/19 67/22/21
f 57/64/51 79/86/43 75/21/13 54/20/20
f 74/8/8 68/7/7 71/82/59 78/83/40
f 78/88/40 71/77/59 67/22/21 75/21/13
f 40/23/11 66/26/24 72/76/58 41/100/66
f 41/101/66 72/80/58 68/7/7 39/6/6
f 76/85/42 47/56/47 43/5/5 74/8/8
f 18/92/62 55/59/48 52/17/17 17/16/16
f 61/25/23 13/24/22 15/102/34 65/71/54
f 65/67/54 15/103/34 12/15/15 59/18/18
f 3/91/61 7/34/32 17/16/16 12/15/15 14/39/35
usemtl WoodPlank
f 44/104/67 16/105/68 6/106/69 50/107/70
f 32/108/71 44/104/67 50/107/70 22/109/72
f 16/105/68 44/104/67 73/110/71 53/111/73
f 6/106/69 10/37/33 9/112/30 8/113/29
f 22/109/72 25/114/38 26/115/37 28/116/39
f 32/108/71 35/117/42 36/118/41 38/119/43
f 44/104/67 48/120/46 46/121/45 47/122/47
f 53/111/73 57/123/51 56/124/49 55/59/48
f 73/110/71 76/125/42 77/126/41 79/127/43
f 6/106/69 16/105/68 18/92/62 10/37/33
f 44/104/67 32/108/71 38/119/43 48/120/46
f 32/108/71 22/109/72 28/116/39 35/117/42
f 50/107/70 6/106/69 8/113/29 51/128/65
f 22/109/72 50/107/70 51/128/65 25/114/38
f 53/111/73 73/110/71 79/127/43 57/123/51
f 73/110/71 44/104/67 47/122/47 76/125/42
f 16/105/68 53/111/73 55/59/48 18/92/62
