# Blender v3.0.0 OBJ File: 'Laboratory.blend'
# www.blender.org
mtllib Room_02_Platform_02.mtl
o Room_02_Platform_02_Cube.018
v 4.010580 -9.750471 0.975000
v 4.010580 -9.725471 1.000000
v 3.985580 -9.750471 1.000000
v 4.010580 0.975000 1.000000
v 4.010580 1.000000 0.975000
v 4.010580 -9.725471 -1.791846
v 4.010580 -9.750471 -1.766846
v 4.035580 1.000000 -1.741846
v 4.010580 0.975000 -1.791846
v 3.985580 0.975000 -1.766846
v 0.284555 -9.750471 -1.741846
v 0.309555 -9.750471 -1.766846
v 0.309555 0.975000 -1.766846
v 0.284555 0.975000 -1.741846
v 0.309555 1.000000 -1.741846
v 0.309555 -9.750471 1.000000
v 0.284555 -9.750471 0.975000
v 0.309555 0.975000 1.000000
v 0.309555 1.000000 0.975000
v 0.284555 0.975000 0.975000
v 6.992692 0.975000 -1.766846
v 6.967758 1.000000 -1.766846
v 6.939356 -9.750471 -1.766846
v 6.964423 -9.725471 -1.766846
v 6.939356 -9.750471 0.975000
v 6.964423 -9.725471 0.975000
v 6.939422 -9.725471 1.000000
v 6.967758 1.000000 0.975000
v 6.967692 0.975000 1.000000
v 6.992692 0.975000 0.975000
v 4.035580 1.000000 -10.306442
v 4.010580 0.975000 -10.306442
v 4.010580 -9.725471 -10.306442
v 4.035580 -9.750471 -10.306442
v 7.017692 0.974670 -10.306442
v 6.967761 1.000328 -10.331442
v 6.992692 0.975000 -10.281443
v 6.989422 -9.725799 -10.306442
v 6.964423 -9.725471 -10.281443
v 6.939359 -9.750143 -10.331442
v 4.010580 0.975000 -13.281443
v 4.035580 1.000000 -13.281443
v 4.035580 0.974999 -13.306442
v 4.010580 -9.725471 -13.281443
v 4.035580 -9.725471 -13.306442
v 4.035580 -9.750471 -13.281443
v 6.992758 1.000000 -13.281443
v 6.992692 0.974999 -13.306442
v 6.964423 -9.725471 -13.306442
v 6.964356 -9.750471 -13.281443
v 8.226892 0.958791 -10.306442
v 8.251891 0.958464 -10.331442
v 8.226959 0.983792 -10.331442
v 8.198623 -9.741678 -10.306442
v 8.198558 -9.766680 -10.331442
v 8.223621 -9.742008 -10.331442
v 8.226892 0.958791 -13.306442
v 8.226959 0.983792 -13.281443
v 8.251891 0.958464 -13.281443
v 8.198623 -9.741679 -13.306442
v 8.223621 -9.742008 -13.281443
v 8.198558 -9.766680 -13.281443
vt 0.820551 0.262937
vt 0.820551 0.363563
vt 0.527150 0.362704
vt 0.526291 0.262936
vt 0.425966 0.614530
vt 0.425966 0.982175
vt 0.133424 0.982175
vt 0.133424 0.614530
vt 0.800591 0.855016
vt 0.432947 0.855016
vt 0.432947 0.754387
vt 0.800591 0.753416
vt 0.125413 0.607550
vt 0.125413 0.239904
vt 0.417955 0.239904
vt 0.417955 0.607550
vt 0.031209 0.982175
vt 0.031209 0.614530
vt 0.792579 0.104356
vt 0.424077 0.104356
vt 0.424077 0.011011
vt 0.792579 0.011011
vt 0.432088 0.855875
vt 0.800591 0.982175
vt 0.432088 0.982175
vt 0.424936 0.362704
vt 0.424936 0.262078
vt 0.432088 0.620133
vt 0.800591 0.620134
vt 0.800591 0.746434
vt 0.432088 0.747293
vt 0.031209 0.607550
vt 0.031209 0.239904
vt 0.398855 0.131323
vt 0.031209 0.131323
vt 0.031654 0.088917
vt 0.399300 0.088917
vt 0.031218 0.040389
vt 0.398864 0.040389
vt 0.399300 0.081936
vt 0.031654 0.081936
vt 0.399121 0.231951
vt 0.031477 0.232922
vt 0.792581 0.212692
vt 0.424936 0.212692
vt 0.424936 0.111337
vt 0.792581 0.111337
vt 0.424936 0.219672
vt 0.526291 0.219672
vt 0.432088 0.855016
vt 0.801450 0.748152
vt 0.800591 0.747293
vt 0.801450 0.746434
vt 0.800591 0.619275
vt 0.801450 0.620134
vt 0.031209 0.239043
vt 0.031209 0.239046
vt 0.030350 0.239902
vt 0.527150 0.261228
vt 0.527150 0.262078
vt 0.526291 0.262078
vt 0.030350 0.614530
vt 0.031209 0.613671
vt 0.792590 0.213551
vt 0.792581 0.213551
vt 0.793440 0.212692
vt 0.527150 0.219681
vt 0.527150 0.219672
vt 0.526291 0.218813
vt 0.399309 0.088058
vt 0.400159 0.088917
vt 0.801450 0.747293
vt 0.432947 0.747293
vt 0.800591 0.983034
vt 0.432088 0.983034
vt 0.432088 0.619274
vt 0.125413 0.239046
vt 0.432947 0.753528
vt 0.800591 0.752557
vt 0.432088 0.754389
vt 0.418814 0.239895
vt 0.418814 0.607541
vt 0.819692 0.363563
vt 0.527150 0.363563
vt 0.418814 0.239045
vt 0.030350 0.982175
vt 0.424077 0.362704
vt 0.424077 0.262078
vt 0.424936 0.363563
vt 0.424945 0.213551
vt 0.031663 0.088058
vt 0.424936 0.218813
vt 0.424077 0.219681
vt 0.914755 0.363563
vt 0.914755 0.262937
vt 0.832289 0.585272
vt 0.831358 0.491928
vt 0.932959 0.491850
vt 0.933032 0.586053
vt 0.704272 0.585371
vt 0.704199 0.492027
vt 0.933260 0.880314
vt 0.832516 0.879533
vt 0.934197 0.981669
vt 0.832595 0.981747
vt 0.976524 0.880280
vt 0.976603 0.981636
vt 0.704199 0.491168
vt 0.704199 0.491168
vt 0.703340 0.492027
vt 0.932957 0.490991
vt 0.933818 0.491849
vt 0.934986 0.879454
vt 0.934119 0.880313
vt 0.934127 0.879454
vt 0.831736 0.981748
vt 0.832596 0.982606
vt 0.832596 0.982606
vt 0.976612 0.982495
vt 0.976603 0.982495
vt 0.977462 0.981635
vt 0.831357 0.491069
vt 0.703413 0.585372
vt 0.933891 0.586053
vt 0.934117 0.878595
vt 0.831657 0.879534
vt 0.831431 0.586991
vt 0.934196 0.982528
vt 0.977383 0.880280
vt 0.976533 0.879422
vn 0.3813 -0.9244 0.0000
vn -0.3324 -0.8263 -0.4547
vn -0.4521 -0.8919 -0.0003
vn 0.0933 -0.9906 0.0995
vn -0.9681 -0.1770 -0.1770
vn -0.8540 0.4879 -0.1806
vn -0.9239 0.3827 0.0000
vn -0.9522 -0.3053 -0.0003
vn 0.0000 0.3827 0.9239
vn 0.1020 -0.2893 0.9518
vn 0.3413 -0.3422 0.8754
vn 0.3418 0.3410 0.8757
vn 0.9249 0.3801 0.0000
vn 0.9228 -0.3853 0.0000
vn 0.8245 -0.5046 0.2559
vn 0.8292 0.4979 0.2539
vn -0.8756 0.3416 -0.3416
vn -0.8755 -0.3416 -0.3416
vn -0.9239 0.0000 -0.3827
vn -0.9239 0.0000 0.3827
vn -0.8756 0.3416 0.3416
vn 0.1962 -0.1962 0.9607
vn -0.3416 0.3416 0.8756
vn -0.3827 0.0000 0.9239
vn -0.3416 -0.8756 -0.3416
vn -0.0060 -0.9236 -0.3832
vn -0.3827 0.0000 -0.9239
vn -0.3416 0.3416 -0.8756
vn -0.3180 0.5229 -0.7908
vn 0.8762 0.3399 0.3417
vn 0.8749 -0.3432 0.3415
vn -0.0025 -0.3813 -0.9244
vn 0.0025 0.3840 -0.9233
vn 0.3450 0.3395 -0.8750
vn 0.3382 -0.3435 -0.8761
vn 0.2619 0.4997 0.8256
vn 0.2478 -0.5027 0.8281
vn 0.3381 -0.3435 0.8761
vn 0.3450 0.3395 0.8750
vn -0.3416 -0.3416 -0.8756
vn 0.8776 0.3367 0.3413
vn 0.8735 -0.3464 0.3419
vn 0.8735 -0.3464 -0.3419
vn 0.8776 0.3367 -0.3412
vn 0.3326 -0.8789 -0.3419
vn 0.3326 -0.8789 0.3419
vn 0.1610 -0.8749 0.4567
vn -0.0991 0.9901 -0.0991
vn -0.3416 0.8756 -0.3416
vn 0.3409 -0.8759 0.3415
vn 0.3505 0.8722 0.3412
vn 0.0000 0.9239 0.3827
vn 0.3422 0.8753 0.3417
vn 0.3840 0.9233 0.0000
vn -0.3416 0.8756 0.3416
vn 0.1049 0.9896 0.0987
vn -0.3827 0.9239 0.0000
vn 0.0060 0.9241 -0.3821
vn -0.3416 0.8755 -0.3416
vn 0.3505 0.8722 -0.3412
usemtl Concrete_02
s 1
f 23/1/1 7/2/2 34/3/3 40/4/4
f 6/5/5 9/6/6 32/7/7 33/8/8
f 4/9/9 2/10/10 27/11/11 29/12/12
f 21/13/13 24/14/14 39/15/15 37/16/16
f 33/8/8 32/7/7 41/17/17 44/18/18
f 14/19/17 11/20/19 17/21/20 20/22/21
f 3/23/22 2/10/10 4/9/9 18/24/23 16/25/24
f 40/4/4 34/3/3 46/26/25 50/27/26
f 12/28/27 13/29/28 10/30/29 7/31/2
f 24/14/14 21/13/13 30/32/30 26/33/31
f 49/34/32 48/35/33 57/36/34 60/37/35
f 35/38/36 38/39/37 54/40/38 51/41/39
f 45/42/40 43/43/28 48/35/33 49/34/32
f 52/44/41 56/45/42 61/46/43 59/47/44
f 40/4/4 50/27/26 62/48/45 55/49/46
f 1/50/47 2/10/10 3/23/22
f 8/51/48 9/52/6 10/53/29
f 13/29/28 14/54/17 15/55/49
f 25/56/50 26/57/31 27/58/11
f 38/59/37 39/60/15 40/61/4
f 44/18/18 45/62/40 46/63/25
f 51/64/39 52/65/41 53/66/51
f 54/67/38 55/68/46 56/69/42
f 60/37/35 61/70/43 62/71/45
f 15/55/49 8/72/48 10/30/29 13/29/28
f 9/52/6 6/73/5 7/31/2 10/30/29
f 20/74/21 17/75/20 16/25/24 18/24/23
f 13/29/28 12/28/27 11/76/19 14/54/17
f 25/56/50 23/77/1 24/14/14 26/33/31
f 29/12/12 27/11/11 26/78/31 30/79/30
f 1/50/47 25/80/50 27/11/11 2/10/10
f 37/16/16 39/15/15 38/81/37 35/82/36
f 6/83/5 33/84/8 34/3/3 7/2/2
f 39/15/15 24/14/14 23/77/1 40/85/4
f 43/86/28 45/62/40 44/18/18 41/17/17
f 50/27/26 46/26/25 45/87/40 49/88/32
f 46/26/25 34/3/3 33/84/8 44/89/18
f 51/64/39 54/90/38 56/45/42 52/44/41
f 59/91/44 61/70/43 60/37/35 57/36/34
f 61/92/43 56/69/42 55/49/46 62/48/45
f 49/88/32 60/93/35 62/48/45 50/27/26
f 54/67/38 38/59/37 40/4/4 55/49/46
f 1/94/47 7/2/2 23/1/1 25/95/50
usemtl WoodPlank
f 8/96/48 5/97/52 28/98/53 22/99/54
f 8/96/48 15/100/49 19/101/55 5/97/52
f 8/96/48 22/99/54 36/102/56 31/103/57
f 31/103/57 36/102/56 47/104/58 42/105/59
f 47/104/58 36/102/56 53/106/51 58/107/60
f 18/108/23 19/109/55 20/110/21
f 28/98/53 29/111/12 30/112/30
f 35/113/36 36/114/56 37/115/16
f 41/116/17 42/117/59 43/118/28
f 57/119/34 58/120/60 59/121/44
f 5/97/52 19/101/55 18/108/23 4/122/9
f 14/123/17 20/110/21 19/101/55 15/100/49
f 22/99/54 28/98/53 30/112/30 21/124/13
f 4/122/9 29/111/12 28/98/53 5/97/52
f 21/124/13 37/125/16 36/102/56 22/99/54
f 32/126/7 9/127/6 8/96/48 31/103/57
f 48/128/33 43/118/28 42/105/59 47/104/58
f 41/116/17 32/126/7 31/103/57 42/105/59
f 52/129/41 59/121/44 58/107/60 53/106/51
f 47/104/58 58/107/60 57/119/34 48/128/33
f 53/106/51 36/102/56 35/113/36 51/130/39
