# Blender v3.0.0 OBJ File: 'Laboratory.blend'
# www.blender.org
mtllib Room_02_Platform_03.mtl
o Room_02_Platform_03_Cube.019
v 4.010580 -9.750471 0.975000
v 3.985580 -9.750471 1.000000
v 3.985580 1.000000 0.975000
v 3.985580 0.975000 1.000000
v 4.010580 0.975000 0.975000
v 3.985580 -9.750471 -14.669876
v 4.010580 -9.750471 -14.644876
v 3.985580 1.000000 -14.644876
v 4.010580 0.975000 -14.644876
v 3.985580 0.975000 -14.669876
v -2.715445 -9.750471 -14.644876
v -2.690444 -9.750471 -14.669876
v -2.690444 0.975000 -14.669876
v -2.715445 0.975000 -14.644876
v -2.690444 1.000000 -14.644876
v -2.690444 -9.750471 1.000000
v -2.715445 -9.750471 0.975000
v -2.690444 0.975000 1.000000
v -2.690444 1.000000 0.975000
v -2.715445 0.975000 0.975000
vt 0.624419 0.314409
vt 0.375000 0.314409
vt 0.375000 0.935591
vt 0.624419 0.935591
vt 0.375000 0.314108
vt 0.624419 0.314108
vt 0.624419 0.499306
vt 0.375000 0.499306
vt 0.375000 0.750694
vt 0.624419 0.750694
vt 0.624419 0.935892
vt 0.375000 0.935892
vt 0.624419 0.313415
vt 0.624419 0.313415
vt 0.625000 0.314409
vt 0.624419 0.500399
vt 0.375000 0.500399
vt 0.375000 0.749601
vt 0.624419 0.749601
vt 0.625694 0.500399
vt 0.810892 0.500399
vt 0.810892 0.749601
vt 0.625694 0.749601
vt 0.625694 0.750000
vt 0.625000 0.749601
vt 0.625000 0.500399
vt 0.625694 0.500000
vt 0.810892 0.750000
vt 0.810892 0.750000
vt 0.811585 0.749601
vt 0.810892 0.500000
vt 0.811585 0.500399
vn -0.8756 0.3416 -0.3416
vn -0.9239 0.0000 -0.3827
vn -0.9239 0.0000 0.3827
vn -0.8756 0.3416 0.3416
vn -0.3827 0.0000 -0.9239
vn -0.3416 0.3416 -0.8756
vn 0.3416 0.3416 -0.8756
vn 0.3827 0.0000 -0.9239
vn 0.3827 0.0000 0.9239
vn 0.3416 0.3416 0.8756
vn -0.3416 0.3416 0.8756
vn -0.3827 0.0000 0.9239
vn -0.3416 0.8756 -0.3416
vn 0.8756 0.3416 -0.3416
vn 0.9239 0.0000 -0.3827
vn 0.9239 0.0000 0.3827
vn 0.8756 0.3416 0.3416
vn 0.3416 0.8756 -0.3416
vn -0.3416 0.8756 0.3416
vn 0.3416 0.8756 0.3416
usemtl Concrete_02
s 1
f 14/1/1 11/2/2 17/3/3 20/4/4
f 12/5/5 13/6/6 10/7/7 6/8/8
f 2/9/9 4/10/10 18/11/11 16/12/12
f 13/13/6 14/14/1 15/15/13
f 9/16/14 7/17/15 6/8/8 10/7/7
f 4/10/10 2/9/9 1/18/16 5/19/17
f 20/4/4 17/3/3 16/12/12 18/11/11
f 13/6/6 12/5/5 11/2/2 14/1/1
f 7/17/15 9/16/14 5/19/17 1/18/16
usemtl WoodPlank
f 8/20/18 15/21/13 19/22/19 3/23/20
f 3/23/20 4/24/10 5/25/17
f 8/20/18 9/26/14 10/27/7
f 18/28/11 19/29/19 20/30/4
f 15/21/13 8/20/18 10/27/7 13/31/6
f 8/20/18 3/23/20 5/19/17 9/16/14
f 3/23/20 19/22/19 18/28/11 4/24/10
f 14/32/1 20/30/4 19/22/19 15/21/13
