# Blender v3.0.0 OBJ File: 'Laboratory.blend'
# www.blender.org
mtllib Square_Roof.mtl
o Square_Roof_01_Cube.011
v 0.000000 2.000000 0.000000
v 0.000000 2.000000 -4.000000
v 4.000000 2.000000 0.000000
v 4.000000 2.000000 -4.000000
v 0.000000 0.000000 -4.000000
v 0.000000 0.000000 0.000000
v 4.000000 0.000000 -4.000000
v 4.000000 0.000000 0.000000
v 0.083826 0.000000 -3.916174
v 0.083826 0.000000 -0.083826
v 3.916174 0.000000 -3.916174
v 3.916174 0.000000 -0.083826
v 0.431738 0.000000 -3.568262
v 3.568262 0.000000 -3.568262
v 3.568262 0.000000 -0.431738
v 0.431738 0.000000 -0.431738
v 0.519804 0.016974 -0.536778
v 0.536778 0.016974 -0.519804
v 0.502831 0.000000 -0.502831
v 0.524776 0.016974 -0.524776
v 0.519804 0.007174 -0.519804
v 0.519804 0.004972 -0.514833
v 0.514833 0.004972 -0.519804
v 0.519804 0.016974 -3.463222
v 0.502831 0.000000 -3.497169
v 0.536778 0.016974 -3.480196
v 0.514833 0.004972 -3.480196
v 0.519804 0.007174 -3.480196
v 0.519805 0.004972 -3.485167
v 0.524776 0.016974 -3.475224
v 3.480196 0.016974 -0.536778
v 3.497169 0.000000 -0.502831
v 3.463222 0.016974 -0.519804
v 3.485167 0.004972 -0.519805
v 3.480196 0.007174 -0.519804
v 3.480196 0.004972 -0.514833
v 3.475224 0.016974 -0.524776
v 3.463222 0.016974 -3.480196
v 3.497169 0.000000 -3.497169
v 3.480196 0.016974 -3.463222
v 3.480196 0.004972 -3.485167
v 3.480196 0.007174 -3.480196
v 3.485167 0.004972 -3.480196
v 3.475224 0.016974 -3.475224
v 0.519804 1.206093 -0.536778
v 0.536778 1.223067 -0.536778
v 0.536778 1.206093 -0.519804
v 0.524776 1.218096 -0.536778
v 0.526978 1.215893 -0.526978
v 0.536778 1.218096 -0.524776
v 0.524776 1.206093 -0.524776
v 0.519804 1.206093 -3.463222
v 0.536778 1.206093 -3.480196
v 0.536778 1.223067 -3.463222
v 0.524776 1.206093 -3.475224
v 0.526978 1.215893 -3.473022
v 0.536778 1.218096 -3.475224
v 0.524776 1.218096 -3.463222
v 3.480196 1.206093 -0.536778
v 3.463222 1.206093 -0.519804
v 3.463222 1.223067 -0.536778
v 3.475224 1.206093 -0.524776
v 3.473022 1.215893 -0.526978
v 3.463222 1.218096 -0.524776
v 3.475224 1.218096 -0.536778
v 3.463222 1.206093 -3.480196
v 3.480196 1.206093 -3.463222
v 3.463222 1.223067 -3.463222
v 3.475224 1.206093 -3.475224
v 3.473022 1.215893 -3.473022
v 3.475224 1.218096 -3.463222
v 3.463222 1.218096 -3.475224
v 3.177257 0.000000 -4.000000
v 0.822744 0.000000 -4.000000
v 0.822744 2.000000 -4.000000
v 3.177257 2.000000 -4.000000
v 0.822744 0.000000 0.000000
v 3.177257 0.000000 0.000000
v 3.177257 2.000000 0.000000
v 0.822744 2.000000 0.000000
v 3.177257 0.000000 -0.083826
v 0.822744 0.000000 -0.083826
v 0.822744 0.000000 -3.916174
v 3.177257 0.000000 -3.916174
v 0.822744 0.000000 -3.568262
v 3.177257 0.000000 -3.568262
v 3.177257 0.000000 -0.431738
v 0.822744 0.000000 -0.431738
v 3.177257 0.016974 -3.480196
v 0.822744 0.016974 -3.480196
v 0.822744 0.004972 -3.485167
v 3.177257 0.004972 -3.485167
v 0.822744 0.000000 -3.497169
v 3.177257 0.000000 -3.497169
v 0.822744 0.016974 -0.519804
v 3.177257 0.016974 -0.519804
v 3.177257 0.004972 -0.514833
v 0.822744 0.004972 -0.514833
v 3.177257 0.000000 -0.502831
v 0.822744 0.000000 -0.502831
v 3.177257 1.223067 -3.463222
v 0.822744 1.223067 -3.463222
v 0.822744 1.218096 -3.475224
v 3.177257 1.218096 -3.475224
v 0.822744 1.206093 -3.480196
v 3.177257 1.206093 -3.480196
v 0.822744 1.223067 -0.536778
v 3.177257 1.223067 -0.536778
v 3.177257 1.218096 -0.524776
v 0.822744 1.218096 -0.524776
v 3.177257 1.206093 -0.519804
v 0.822744 1.206093 -0.519804
v 0.000000 0.000000 -3.177257
v 0.000000 0.000000 -0.822744
v 0.000000 2.000000 -0.822744
v 0.000000 2.000000 -3.177257
v 4.000000 0.000000 -0.822744
v 4.000000 0.000000 -3.177257
v 4.000000 2.000000 -3.177257
v 4.000000 2.000000 -0.822744
v 3.916174 0.000000 -3.177257
v 3.916174 0.000000 -0.822744
v 0.083826 0.000000 -0.822744
v 0.083826 0.000000 -3.177257
v 0.431738 0.000000 -0.822744
v 0.431738 0.000000 -3.177257
v 3.568262 0.000000 -3.177257
v 3.568262 0.000000 -0.822744
v 0.519804 0.016974 -3.177257
v 0.519804 0.016974 -0.822744
v 0.514833 0.004972 -0.822744
v 0.514833 0.004972 -3.177257
v 0.502831 0.000000 -0.822744
v 0.502831 0.000000 -3.177257
v 3.480196 0.016974 -0.822744
v 3.480196 0.016974 -3.177257
v 3.485167 0.004972 -3.177257
v 3.485167 0.004972 -0.822744
v 3.497169 0.000000 -3.177257
v 3.497169 0.000000 -0.822744
v 0.536778 1.223067 -3.177257
v 0.536778 1.223067 -0.822744
v 0.524776 1.218096 -0.822744
v 0.524776 1.218096 -3.177257
v 0.519804 1.206093 -0.822744
v 0.519804 1.206093 -3.177257
v 3.463222 1.223067 -0.822744
v 3.463222 1.223067 -3.177257
v 3.475224 1.218096 -3.177257
v 3.475224 1.218096 -0.822744
v 3.480196 1.206093 -3.177257
v 3.480196 1.206093 -0.822744
v 3.177257 2.000000 -3.177257
v 3.177257 2.000000 -0.822744
v 0.822744 2.000000 -3.177257
v 0.822744 2.000000 -0.822744
v 0.822744 1.223067 -3.177257
v 0.822744 1.223067 -0.822744
v 3.177257 1.223067 -3.177257
v 3.177257 1.223067 -0.822744
v 3.177257 0.080305 -0.083826
v 0.822744 0.080305 -0.083826
v 0.822744 0.080305 -3.916174
v 3.177257 0.080305 -3.916174
v 0.822744 0.080305 -3.568262
v 3.177257 0.080305 -3.568262
v 3.177257 0.080305 -0.431738
v 0.822744 0.080305 -0.431738
v 3.916174 0.080305 -3.177257
v 3.916174 0.080305 -0.822744
v 0.083826 0.080305 -0.822744
v 0.083826 0.080305 -3.177257
v 0.431738 0.080305 -0.822744
v 0.431738 0.080305 -3.177257
v 3.568262 0.080305 -3.177257
v 3.568262 0.080305 -0.822744
vt 0.544078 0.075065
vt 0.364951 0.075065
vt 0.364951 0.000000
vt 0.544078 0.000000
vt 0.723137 0.345981
vt 0.544078 0.344156
vt 0.544078 0.269192
vt 0.723137 0.271017
vt 0.723137 0.559077
vt 0.902264 0.559077
vt 0.902264 0.634142
vt 0.723137 0.634142
vt 0.544078 0.440016
vt 0.364951 0.440016
vt 0.364951 0.364950
vt 0.544078 0.364950
vt 0.786084 0.027186
vt 0.786084 0.001095
vt 0.812174 0.001095
vt 0.812174 0.027186
vt 0.289885 0.289885
vt 0.364950 0.289885
vt 0.289885 0.364950
vt 0.007648 0.654836
vt 0.007648 0.722253
vt 0.000000 0.729901
vt 0.000000 0.654836
vt 0.075065 0.372599
vt 0.007648 0.372599
vt 0.000000 0.364951
vt 0.075065 0.364951
vt 0.357302 0.440016
vt 0.357302 0.372599
vt 0.364950 0.364951
vt 0.364950 0.440016
vt 0.289885 0.722253
vt 0.357302 0.722253
vt 0.364950 0.729901
vt 0.289885 0.729901
vt 0.289885 0.684024
vt 0.319073 0.684024
vt 0.325560 0.690510
vt 0.289885 0.690510
vt 0.075065 0.410828
vt 0.045877 0.410828
vt 0.039391 0.404341
vt 0.075065 0.404341
vt 0.319073 0.440016
vt 0.319073 0.410828
vt 0.325560 0.404341
vt 0.325560 0.440016
vt 0.039391 0.654836
vt 0.039391 0.690510
vt 0.001161 0.757540
vt 0.001161 0.731450
vt 0.107663 0.731450
vt 0.107663 0.757540
vt 0.939586 0.876602
vt 0.939586 0.902693
vt 0.833084 0.902693
vt 0.833084 0.876602
vt 0.651741 0.877934
vt 0.651741 0.904025
vt 0.545239 0.904025
vt 0.545239 0.877934
vt 0.830760 0.876884
vt 0.830760 0.902939
vt 0.724299 0.901854
vt 0.724299 0.875799
vt 0.001161 0.998451
vt 0.001248 0.999547
vt 0.000284 1.000000
vt 0.000000 1.000000
vt 0.831922 0.904474
vt 0.831638 0.904495
vt 0.830673 0.904056
vt 0.045877 0.684024
vt 0.046972 0.682475
vt 0.047426 0.682475
vt 0.047426 0.682929
vt 0.000000 0.729901
vt 0.000284 0.729901
vt 0.001248 0.730355
vt 0.047426 0.411923
vt 0.047426 0.412376
vt 0.046972 0.412376
vt 0.939586 0.635691
vt 0.939499 0.634596
vt 0.940464 0.634142
vt 0.940747 0.634142
vt 0.652903 0.905574
vt 0.652619 0.905574
vt 0.651655 0.905120
vt 0.317525 0.682929
vt 0.317525 0.682475
vt 0.317978 0.682475
vt 0.830760 0.636298
vt 0.830673 0.635227
vt 0.831638 0.634760
vt 0.831922 0.634739
vt 0.940747 0.904241
vt 0.940464 0.904241
vt 0.939499 0.903788
vt 0.317978 0.412376
vt 0.317525 0.412376
vt 0.317525 0.411923
vt 0.651741 0.637024
vt 0.651655 0.635929
vt 0.652619 0.635475
vt 0.652903 0.635475
vt 0.107663 0.998451
vt 0.108825 0.998451
vt 0.108666 0.999346
vt 0.107750 0.999547
vt 0.812174 0.268097
vt 0.813270 0.268097
vt 0.813069 0.268991
vt 0.812174 0.269192
vt 0.724212 0.902971
vt 0.723296 0.902772
vt 0.723137 0.901866
vt 0.107750 0.730355
vt 0.108666 0.730556
vt 0.108825 0.731450
vt 0.833084 0.635691
vt 0.831922 0.635691
vt 0.832081 0.634797
vt 0.832998 0.634596
vt 0.545173 0.268097
vt 0.545173 0.269192
vt 0.544279 0.268991
vt 0.544078 0.268097
vt 0.545153 0.905120
vt 0.544237 0.904919
vt 0.544078 0.904025
vt 0.724299 0.635213
vt 0.723137 0.635225
vt 0.723296 0.634344
vt 0.724212 0.634142
vt 0.812174 0.000000
vt 0.813069 0.000201
vt 0.813270 0.001095
vt 0.832997 0.903788
vt 0.832081 0.903587
vt 0.831922 0.902693
vt 0.545239 0.637024
vt 0.544078 0.637024
vt 0.544237 0.636129
vt 0.545153 0.635928
vt 0.545173 0.001095
vt 0.544078 0.001095
vt 0.544279 0.000201
vt 0.545173 0.000000
vt 0.001161 0.972361
vt 0.000000 0.972361
vt 0.046972 0.654836
vt 0.045877 0.654836
vt 0.939586 0.661782
vt 0.940747 0.661782
vt 0.075065 0.411923
vt 0.651741 0.663114
vt 0.652903 0.663114
vt 0.317978 0.440016
vt 0.830760 0.662354
vt 0.831922 0.662341
vt 0.289885 0.682929
vt 0.786084 0.268097
vt 0.786084 0.269192
vt 0.108825 0.972361
vt 0.107663 0.972361
vt 0.545173 0.242006
vt 0.544078 0.242006
vt 0.831922 0.661782
vt 0.833084 0.661782
vt 0.571264 0.001095
vt 0.571264 0.000000
vt 0.544078 0.663114
vt 0.545239 0.663114
vt 0.813270 0.027186
vt 0.723137 0.661281
vt 0.724299 0.661268
vt 0.723137 0.875811
vt 0.812174 0.242006
vt 0.813270 0.242006
vt 0.831922 0.876602
vt 0.545173 0.027186
vt 0.544078 0.027186
vt 0.075065 0.682929
vt 0.075065 0.684024
vt 0.831922 0.876872
vt 0.289885 0.411923
vt 0.289885 0.410828
vt 0.940747 0.876602
vt 0.289885 0.404341
vt 0.289885 0.372599
vt 0.039391 0.440016
vt 0.039391 0.654836
vt 0.039391 0.440016
vt 0.075065 0.690510
vt 0.075065 0.722253
vt 0.289885 0.722253
vt 0.289885 0.690510
vt 0.075065 0.729901
vt 0.289885 0.364951
vt 0.000000 0.289885
vt 0.075065 0.289885
vt 0.075065 0.364950
vt 0.000000 0.364950
vt 0.786084 0.242006
vt 0.544078 0.729901
vt 0.364951 0.729901
vt 0.364951 0.654836
vt 0.544078 0.654836
vt 0.723137 0.635475
vt 0.544078 0.633650
vt 0.544078 0.558686
vt 0.723137 0.560511
vt 0.571264 0.242006
vt 0.571264 0.027186
vt 0.571264 0.268097
vt 0.075065 0.075065
vt 0.289885 0.075065
vt 0.075065 0.000000
vt 0.289885 0.000000
vt 0.000000 0.000000
vt 0.000000 0.075065
vt 0.045877 0.440016
vt 0.544078 0.877934
vt 0.786084 0.000000
vt 0.108825 0.757540
vt 0.571264 0.269192
vt 0.317978 0.654836
vt 0.319073 0.654836
vt 0.652903 0.877934
vt 0.046972 0.440016
vt 0.000000 0.757540
vt 0.007648 0.440016
vt 0.289885 0.372599
vt 0.075065 0.372599
vt 0.325560 0.654836
vt 0.357302 0.654836
vt 0.007648 0.654836
vt 0.364950 0.654836
vt 0.000000 0.440016
vt 0.723137 0.269192
vt 0.902264 0.269192
vt 0.902264 0.344257
vt 0.723137 0.344257
vt 0.544078 0.289885
vt 0.325560 0.654836
vt 0.357302 0.654836
vt 0.357302 0.440016
vt 0.325560 0.440016
vt 0.075065 0.404341
vt 0.289885 0.404341
vt 0.075065 0.690510
vt 0.075065 0.722253
vt 0.007648 0.440016
vn -0.7071 -0.7071 0.0000
vn -0.7071 0.7071 0.0000
vn -0.5773 0.5773 -0.5773
vn -0.5773 -0.5773 -0.5773
vn 0.0000 -0.7071 -0.7071
vn 0.0000 0.7071 -0.7071
vn 0.5773 0.5773 -0.5773
vn 0.5773 -0.5773 -0.5773
vn 0.7071 -0.7071 0.0000
vn 0.7071 0.7071 0.0000
vn 0.5773 0.5773 0.5773
vn 0.5773 -0.5773 0.5773
vn 0.0000 -0.7071 0.7071
vn 0.0000 0.7071 0.7071
vn -0.5773 0.5773 0.5773
vn -0.5773 -0.5773 0.5773
vn 0.0000 -1.0000 0.0000
vn -0.1951 -0.9808 0.0000
vn -0.1793 -0.9673 -0.1794
vn 0.0000 -0.9808 -0.1951
vn 0.0000 1.0000 0.0000
vn 0.3015 -0.9045 -0.3015
vn 0.3015 -0.9045 0.3015
vn -0.3015 -0.9045 0.3015
vn -0.3015 -0.9045 -0.3015
vn -0.0507 -0.9974 -0.0507
vn 0.0000 -0.9808 0.1951
vn 0.0507 -0.9974 0.0507
vn -0.0507 -0.9974 0.0507
vn 0.9808 -0.1951 0.0000
vn 0.9556 -0.2514 0.1535
vn 0.9673 -0.1794 0.1794
vn 0.0000 -0.1951 0.9808
vn -0.1535 -0.2514 0.9556
vn -0.1794 -0.1793 0.9673
vn -0.9808 -0.1951 0.0000
vn -0.9556 -0.2514 -0.1535
vn -0.9673 -0.1793 -0.1794
vn 0.0000 -0.1951 -0.9808
vn 0.1535 -0.2514 -0.9556
vn 0.1794 -0.1794 -0.9673
vn 0.9556 -0.2514 -0.1535
vn 0.6461 -0.4061 -0.6461
vn 0.4524 -0.7685 -0.4524
vn 0.4402 -0.8862 -0.1445
vn 0.1445 -0.8862 -0.4402
vn 0.0507 -0.9974 -0.0507
vn 0.4402 -0.8862 0.1445
vn 0.4524 -0.7685 0.4524
vn 0.6461 -0.4061 0.6461
vn 0.1445 -0.8862 0.4402
vn 0.1535 -0.2514 0.9556
vn -0.4402 -0.8862 -0.1445
vn -0.4524 -0.7685 -0.4524
vn -0.6461 -0.4061 -0.6461
vn -0.1445 -0.8862 -0.4402
vn -0.1535 -0.2514 -0.9556
vn -0.1445 -0.8862 0.4402
vn -0.4524 -0.7685 0.4524
vn -0.6461 -0.4061 0.6461
vn -0.4402 -0.8862 0.1445
vn -0.9556 -0.2514 0.1535
vn 0.9673 -0.1794 -0.1794
vn 0.6965 -0.6965 -0.1726
vn 0.6965 -0.1726 -0.6965
vn 0.1794 -0.9673 -0.1794
vn 0.1726 -0.6965 -0.6965
vn 0.6965 -0.1726 0.6965
vn 0.6965 -0.6965 0.1726
vn 0.1794 -0.1793 0.9673
vn 0.1725 -0.6965 0.6965
vn 0.1794 -0.9673 0.1794
vn -0.6965 -0.1726 -0.6965
vn -0.6965 -0.6965 -0.1726
vn -0.1794 -0.1794 -0.9673
vn -0.1726 -0.6965 -0.6965
vn -0.6965 -0.1725 0.6965
vn -0.1725 -0.6965 0.6965
vn -0.9673 -0.1793 0.1793
vn -0.6965 -0.6965 0.1726
vn -0.1793 -0.9673 0.1794
vn 0.1951 -0.9808 0.0000
usemtl Concrete_04
s 1
f 113/1/1 116/2/2 2/3/3 5/4/4
f 73/5/5 76/6/6 4/7/7 7/8/8
f 117/9/9 120/10/10 3/11/11 8/12/12
f 77/13/13 80/14/14 1/15/15 6/16/16
f 160/17/17 147/18/18 61/19/19 108/20/20
f 156/21/21 115/22/2 1/15/15 80/23/14
f 123/24/22 10/25/17 6/26/16 114/27/1
f 83/28/23 9/29/17 5/30/4 74/31/5
f 121/32/24 11/33/17 7/34/8 118/35/9
f 81/36/25 12/37/17 8/38/12 78/39/13
f 99/40/20 32/41/26 15/42/17 87/43/24
f 93/44/27 25/45/28 13/46/17 85/47/22
f 139/48/18 39/49/29 14/50/17 127/51/23
f 87/43/24 15/42/17 12/37/17 81/36/25
f 127/51/23 14/50/17 11/33/17 121/32/24
f 85/47/22 13/46/17 9/29/17 83/28/23
f 125/52/25 16/53/17 10/25/17 123/24/22
f 129/54/30 24/55/31 52/56/32 146/57/30
f 89/58/33 38/59/34 66/60/35 106/61/33
f 135/62/36 31/63/37 59/64/38 152/65/36
f 95/66/39 18/67/40 47/68/41 112/69/39
f 17/70/42 20/71/43 21/72/44 23/73/45
f 18/67/40 22/74/46 21/75/44 20/76/43
f 19/77/47 23/78/45 21/79/44 22/80/46
f 24/55/31 27/81/48 28/82/49 30/83/50
f 25/45/28 29/84/51 28/85/49 27/86/48
f 26/87/52 30/88/50 28/89/49 29/90/51
f 31/63/37 34/91/53 35/92/54 37/93/55
f 32/41/26 36/94/56 35/95/54 34/96/53
f 33/97/57 37/98/55 35/99/54 36/100/56
f 38/59/34 41/101/58 42/102/59 44/103/60
f 39/49/29 43/104/61 42/105/59 41/106/58
f 40/107/62 44/108/60 42/109/59 43/110/61
f 45/111/63 48/112/64 49/113/8 51/114/65
f 46/115/66 50/116/67 49/117/8 48/118/64
f 47/68/41 51/119/65 49/120/8 50/121/67
f 52/56/32 55/122/68 56/123/12 58/124/69
f 53/125/70 57/126/71 56/127/12 55/128/68
f 54/129/72 58/130/69 56/131/12 57/132/71
f 59/64/38 62/133/73 63/134/4 65/135/74
f 60/136/75 64/137/76 63/138/4 62/139/73
f 61/19/19 65/140/74 63/141/4 64/142/76
f 66/60/35 69/143/77 70/144/16 72/145/78
f 67/146/79 71/147/80 70/148/16 69/149/77
f 68/150/81 72/151/78 70/152/16 71/153/80
f 130/154/30 17/70/42 23/73/45 131/155/9
f 131/156/9 23/78/45 19/77/47 133/157/82
f 90/158/33 26/87/52 29/90/51 91/159/13
f 91/160/13 29/84/51 25/45/28 93/44/27
f 136/161/36 40/107/62 43/110/61 137/162/1
f 137/163/1 43/104/61 39/49/29 139/48/18
f 96/164/39 33/97/57 36/100/56 97/165/5
f 97/166/5 36/94/56 32/41/26 99/40/20
f 142/167/82 46/115/66 48/118/64 143/168/9
f 143/169/9 48/112/64 45/111/63 145/170/30
f 102/171/27 54/129/72 57/132/71 103/172/13
f 103/173/13 57/126/71 53/125/70 105/174/33
f 148/175/18 68/150/81 71/153/80 149/176/1
f 149/177/1 71/147/80 67/146/79 151/178/36
f 108/20/20 61/19/19 64/142/76 109/179/5
f 109/180/5 64/137/76 60/136/75 111/181/39
f 33/97/57 60/136/75 62/139/73 37/98/55
f 37/93/55 62/133/73 59/64/38 31/63/37
f 66/60/35 38/59/34 44/103/60 69/143/77
f 69/149/77 44/108/60 40/107/62 67/146/79
f 26/87/52 53/125/70 55/128/68 30/88/50
f 30/83/50 55/122/68 52/56/32 24/55/31
f 47/68/41 18/67/40 20/76/43 51/119/65
f 51/114/65 20/71/43 17/70/42 45/111/63
f 133/157/82 19/77/47 16/53/17 125/52/25
f 50/121/67 110/182/5 112/69/39 47/68/41
f 109/180/5 111/181/39 112/69/39 110/182/5
f 46/115/66 107/183/20 110/184/5 50/116/67
f 107/183/20 108/20/20 109/179/5 110/184/5
f 72/145/78 104/185/13 106/61/33 66/60/35
f 103/173/13 105/174/33 106/61/33 104/185/13
f 68/150/81 101/186/27 104/187/13 72/151/78
f 101/186/27 102/171/27 103/172/13 104/187/13
f 22/80/46 98/188/5 100/189/20 19/77/47
f 97/166/5 99/40/20 100/189/20 98/188/5
f 18/67/40 95/66/39 98/190/5 22/74/46
f 95/66/39 96/164/39 97/165/5 98/190/5
f 41/106/58 92/191/13 94/192/27 39/49/29
f 91/160/13 93/44/27 94/192/27 92/191/13
f 38/59/34 89/58/33 92/193/13 41/101/58
f 89/58/33 90/158/33 91/159/13 92/193/13
f 33/97/57 96/164/39 111/181/39 60/136/75
f 95/66/39 112/69/39 111/181/39 96/164/39
f 26/87/52 90/158/33 105/174/33 53/125/70
f 89/58/33 106/61/33 105/174/33 90/158/33
f 14/50/17 86/194/25 84/195/24 11/33/17
f 126/196/24 125/52/25 173/197/4 174/198/16
f 16/53/17 88/199/23 82/200/22 10/25/17
f 87/43/24 81/36/25 161/201/4 167/202/16
f 39/49/29 94/192/27 86/194/25 14/50/17
f 93/44/27 85/47/22 86/194/25 94/192/27
f 19/77/47 100/189/20 88/199/23 16/53/17
f 99/40/20 87/43/24 88/199/23 100/189/20
f 10/25/17 82/200/22 77/203/13 6/26/16
f 81/36/25 78/39/13 77/203/13 82/200/22
f 11/33/17 84/195/24 73/204/5 7/34/8
f 83/28/23 74/31/5 73/204/5 84/195/24
f 120/205/10 154/206/21 79/207/14 3/208/11
f 154/206/21 156/21/21 80/23/14 79/207/14
f 142/167/82 158/209/17 107/183/20 46/115/66
f 158/209/17 160/17/17 108/20/20 107/183/20
f 8/210/12 3/211/11 79/212/14 78/213/13
f 79/212/14 80/14/14 77/13/13 78/213/13
f 5/214/4 2/215/3 75/216/6 74/217/5
f 75/216/6 76/6/6 73/5/5 74/217/5
f 157/218/17 159/219/17 160/17/17 158/209/17
f 102/171/27 101/186/27 159/219/17 157/218/17
f 54/129/72 102/171/27 157/218/17 141/220/82
f 141/220/82 157/218/17 158/209/17 142/167/82
f 153/221/21 155/222/21 156/21/21 154/206/21
f 76/223/6 75/224/6 155/222/21 153/221/21
f 4/225/7 76/223/6 153/221/21 119/226/10
f 119/226/10 153/221/21 154/206/21 120/205/10
f 25/45/28 134/227/82 126/196/24 13/46/17
f 134/227/82 133/157/82 125/52/25 126/196/24
f 65/135/74 150/228/1 152/65/36 59/64/38
f 150/228/1 149/177/1 151/178/36 152/65/36
f 61/19/19 147/18/18 150/229/1 65/140/74
f 147/18/18 148/175/18 149/176/1 150/229/1
f 58/124/69 144/230/9 146/57/30 52/56/32
f 144/230/9 143/169/9 145/170/30 146/57/30
f 54/129/72 141/220/82 144/231/9 58/130/69
f 141/220/82 142/167/82 143/168/9 144/231/9
f 34/96/53 138/232/1 140/233/18 32/41/26
f 138/232/1 137/163/1 139/48/18 140/233/18
f 31/63/37 135/62/36 138/234/1 34/91/53
f 135/62/36 136/161/36 137/162/1 138/234/1
f 27/86/48 132/235/9 134/227/82 25/45/28
f 132/235/9 131/156/9 133/157/82 134/227/82
f 24/55/31 129/54/30 132/236/9 27/81/48
f 129/54/30 130/154/30 131/155/9 132/236/9
f 40/107/62 136/161/36 151/178/36 67/146/79
f 136/161/36 135/62/36 152/65/36 151/178/36
f 17/70/42 130/154/30 145/170/30 45/111/63
f 130/154/30 129/54/30 146/57/30 145/170/30
f 13/46/17 126/196/24 124/237/23 9/29/17
f 83/28/23 84/195/24 164/238/16 163/239/12
f 15/42/17 128/240/22 122/241/25 12/37/17
f 125/52/25 123/24/22 171/242/8 173/197/4
f 32/41/26 140/233/18 128/240/22 15/42/17
f 140/233/18 139/48/18 127/51/23 128/240/22
f 12/37/17 122/241/25 117/243/9 8/38/12
f 122/241/25 121/32/24 118/35/9 117/243/9
f 9/29/17 124/237/23 113/244/1 5/30/4
f 124/237/23 123/24/22 114/27/1 113/244/1
f 75/224/6 2/3/3 116/2/2 155/222/21
f 155/222/21 116/2/2 115/22/2 156/21/21
f 101/186/27 68/150/81 148/175/18 159/219/17
f 159/219/17 148/175/18 147/18/18 160/17/17
f 7/245/8 4/246/7 119/247/10 118/248/9
f 118/248/9 119/247/10 120/10/10 117/9/9
f 6/16/16 1/15/15 115/22/2 114/249/1
f 114/249/1 115/22/2 116/2/2 113/1/1
f 122/241/25 128/240/22 176/250/8 170/251/4
f 127/51/23 121/32/24 169/252/16 175/253/12
f 86/194/25 85/47/22 165/254/8 166/255/4
f 128/240/22 127/51/23 175/253/12 176/250/8
f 88/199/23 87/43/24 167/202/16 168/256/12
f 121/32/24 122/241/25 170/251/4 169/252/16
f 84/195/24 86/194/25 166/255/4 164/238/16
f 81/36/25 82/200/22 162/257/8 161/201/4
f 85/47/22 83/28/23 163/239/12 165/254/8
f 123/24/22 124/237/23 172/258/12 171/242/8
f 124/237/23 126/196/24 174/198/16 172/258/12
f 82/200/22 88/199/23 168/256/12 162/257/8
usemtl Light
f 165/254/8 163/239/12 164/238/16 166/255/4
f 167/202/16 161/201/4 162/257/8 168/256/12
f 174/198/16 173/197/4 171/242/8 172/258/12
f 176/250/8 175/253/12 169/252/16 170/251/4
